<?xml version="1.0" encoding="UTF-8"?>
<svg data-bbox="15.482 7.182 480.019 496.004" xmlns="http://www.w3.org/2000/svg" viewBox="0 0 512 512" data-type="shape">
    <g>
        <path d="M495.501 206.738c0-24.133-19.635-43.767-43.768-43.767h-34.315l11.41-19.76a8 8 0 0 0 1.737-2.067 8 8 0 0 0 .933-2.557l16.193-28.046a8 8 0 0 0 1.753-2.081 8 8 0 0 0 .936-2.576l14.256-24.691c8.354-14.466 7.994-31.686-.989-47.244-9.39-16.262-26.192-26.767-42.812-26.767h-.008c-15.761.003-29.754 9.214-39.399 25.934l-74.986 129.856H119.627V137.8a7.994 7.994 0 0 0-7.994-7.994H66.931c-28.369 0-51.449 23.08-51.449 51.449V418.43c0 28.369 23.08 51.449 51.449 51.449h324.424v25.313a7.994 7.994 0 0 0 7.994 7.994h44.702c28.369 0 51.449-23.08 51.449-51.449V214.562a7.95 7.95 0 0 0-1.026-3.912 7.95 7.95 0 0 0 1.026-3.912zM332.145 295.29a8 8 0 0 0 5.93 5.67l20.541 4.681c1.725.389 2.688 1.057 2.921 1.351V307l.031 18.802c-.165.265-1.147.989-2.957 1.408l-20.551 4.648a7.99 7.99 0 0 0-5.947 5.691 79.2 79.2 0 0 1-7.494 18.124 8 8 0 0 0 .187 8.19l11.213 17.855c.941 1.486 1.157 2.637 1.12 3.014q-.006 0-.024.017l-13.238 13.304c-.297.071-1.504-.104-3.094-1.1l-17.83-11.225a7.99 7.99 0 0 0-8.222-.178 78 78 0 0 1-18.1 7.508 8 8 0 0 0-5.688 5.936l-4.681 20.541c-.39 1.729-1.053 2.692-1.341 2.922l-.018-.002-18.847-.003c-.293-.242-.947-1.205-1.337-2.935l-4.678-20.523a7.99 7.99 0 0 0-5.659-5.927c-6.397-1.773-12.497-4.302-18.128-7.517a8 8 0 0 0-8.222.178l-17.816 11.216c-1.6 1.003-2.802 1.188-3.051 1.127l-13.32-13.352c-.031-.389.191-1.533 1.138-3.027l11.196-17.83a8 8 0 0 0 .173-8.213c-3.215-5.634-5.744-11.733-7.517-18.128a8 8 0 0 0-5.938-5.662l-20.487-4.64c-1.847-.427-2.829-1.152-2.963-1.396l.002-18.834c.241-.296 1.203-.959 2.937-1.35l20.522-4.677a7.99 7.99 0 0 0 5.925-5.651 81.7 81.7 0 0 1 7.54-18.174 8 8 0 0 0-.197-8.181l-11.197-17.803c-1.117-1.775-1.17-2.901-1.113-3.073l13.262-13.305c.293-.068 1.485.116 3.075 1.123l17.83 11.225a8 8 0 0 0 8.222.178 78 78 0 0 1 18.1-7.508 8 8 0 0 0 5.688-5.935l4.684-20.551c.425-1.894 1.108-2.745 1.341-2.941l.015.002 18.844.003c.238.205.914 1.06 1.342 2.967l4.268 18.68-3.425 28.869a57 57 0 0 0-11.617-1.197c-31.292 0-56.75 25.445-56.75 56.721s25.458 56.75 56.75 56.75 56.75-25.458 56.75-56.75c0-4.109-.455-8.189-1.334-12.194l19.439-14.522a78 78 0 0 1 1.798 5.596zm-3.315-24.418q-.057.041-.112.084l-51.245 38.282 4.326-36.458c.066-.344.103-.688.123-1.032l3.892-32.8 48.375 27.922-5.357 4.002zm-32.576 45.538c0 22.476-18.285 40.762-40.762 40.762s-40.762-18.286-40.762-40.762 18.285-40.734 40.762-40.734c3.313 0 6.565.39 9.725 1.16l-5.814 49.007a7.994 7.994 0 0 0 12.722 7.346l24.104-18.007c.012.409.024.818.024 1.228zm49.515-61.319-55.544-32.06 27.495-47.614c.181-.269.34-.553.488-.845l38.569-66.792 55.539 32.058zM375.65 75.094l55.538 32.057-10.879 18.841-55.539-32.057zm19.626-33.987c6.77-11.733 15.606-17.937 25.557-17.938h.004c10.842 0 22.482 7.545 28.967 18.774 6.049 10.477 6.41 21.869.989 31.255l-11.61 20.108-55.537-32.056 11.631-20.142zM31.47 181.255c0-19.554 15.907-35.461 35.461-35.461h36.708v221.188H66.931c-13.732 0-26.226 5.408-35.461 14.206zm448.043 270.482c0 19.554-15.907 35.461-35.461 35.461h-36.708V266.01h36.708c13.732 0 26.226-5.408 35.461-14.206zm0-237.175c0 19.554-15.907 35.461-35.461 35.461H399.35a7.994 7.994 0 0 0-7.994 7.994v195.874H66.931c-19.554 0-35.461-15.908-35.461-35.461s15.907-35.461 35.461-35.461h44.702a7.994 7.994 0 0 0 7.994-7.994V178.959h177.584l-16.17 28.002c-2.701-7.829-8.681-12.582-16.139-12.582H246.08c-8.325 0-14.822 5.912-16.949 15.401l-3.645 15.991a94 94 0 0 0-12.874 5.342l-13.874-8.734c-8.226-5.211-16.995-4.789-22.884 1.101l-13.293 13.293c-5.876 5.875-6.304 14.647-1.115 22.892l8.731 13.883a98 98 0 0 0-5.334 12.853l-15.992 3.645c-9.351 2.107-15.393 8.762-15.393 16.954v18.822c0 8.279 5.882 14.783 15.385 16.981l15.994 3.623a95.5 95.5 0 0 0 5.332 12.867l-8.71 13.871c-5.149 8.13-4.709 17.122 1.095 22.878l13.322 13.352c5.871 5.823 14.619 6.245 22.843 1.089l13.896-8.748a95.4 95.4 0 0 0 12.868 5.331l3.644 15.985c2.14 9.494 8.636 15.392 16.953 15.392h18.822c8.317 0 14.814-5.897 16.95-15.374l3.644-15.991a94 94 0 0 0 12.874-5.342l13.906 8.755c8.211 5.146 16.959 4.725 22.857-1.127l13.267-13.295c5.83-5.785 6.271-14.775 1.14-22.88l-8.733-13.907a95 95 0 0 0 5.321-12.858l16.046-3.63c9.468-2.189 15.35-8.693 15.35-16.973v-18.822c0-8.192-6.042-14.847-15.374-16.95l-16.002-3.647a95 95 0 0 0-2.492-6.65l9.815-7.333c.167-.124.32-.267.478-.405.102-.089.211-.171.307-.264.112-.108.212-.231.318-.347.128-.14.26-.277.377-.425.085-.107.16-.225.24-.338.124-.173.246-.347.355-.529.022-.037.049-.068.071-.105l52.571-91.049h43.546c15.317 0 27.779 12.462 27.779 27.779 0 1.422.375 2.755 1.026 3.912a7.95 7.95 0 0 0-1.026 3.912z"/>
    </g>
</svg>
