<?xml version="1.0" encoding="UTF-8"?>
<svg data-bbox="55.618 9.003 400.764 493.992" xmlns="http://www.w3.org/2000/svg" viewBox="0 0 512 512" data-type="shape">
    <g>
        <path d="m453.745 317.866-39.515-68.854c-.284-.511-.482-.936-.567-1.333-.142-.454-.17-.936-.17-1.474 0-2.665.028.199.028-1.474h-.028c0-49.125-19.814-93.657-51.902-126-32.06-32.344-76.422-52.526-125.547-52.923-2.665-.028.198-.028-1.474-.028-49.436 0-94.167 20.012-126.539 52.412-32.4 32.372-52.413 77.131-52.413 126.539 0 32.06 8.447 62.192 23.272 88.271a179.76 179.76 0 0 0 64.12 65.48c.879.51 1.559 1.19 2.013 1.984.425.765.652 1.701.652 2.75v80.277a19.34 19.34 0 0 0 5.726 13.776 19.34 19.34 0 0 0 13.776 5.726h155.679a19.34 19.34 0 0 0 13.776-5.726 19.34 19.34 0 0 0 5.726-13.776v-37.247c0-1.474.624-2.806 1.587-3.798a5.9 5.9 0 0 1 4.054-1.729c4.847-.113 9.326-.057 13.408 0 6.662.085 12.274.17 16.923-.454 24.945-3.402 24.945-26.589 24.917-49.776h.028v-37.928a5.42 5.42 0 0 1 1.644-3.883 5.46 5.46 0 0 1 3.884-1.616h30.047c3.6 0 6.888-.936 9.695-2.58 3.033-1.701 5.471-4.224 7.172-7.144 1.701-2.948 2.665-6.321 2.665-9.779 0-3.231-.822-6.548-2.636-9.694zm-12.104 12.472a5.56 5.56 0 0 1-2.041 2.013c-.765.454-1.701.708-2.75.708h-30.047c-5.386 0-10.261 2.183-13.805 5.726-3.515 3.543-5.698 8.419-5.698 13.776v37.928h.028c0 17.093 0 34.186-12.869 35.943-3.742.482-8.844.425-14.91.34-4.167-.057-8.816-.113-13.805 0-5.357.114-10.205 2.296-13.691 5.783-3.515 3.515-5.698 8.334-5.698 13.691v37.247c0 1.502-.624 2.892-1.616 3.884s-2.353 1.616-3.883 1.616H165.178c-1.502 0-2.891-.624-3.884-1.616s-1.616-2.381-1.616-3.884v-80.277c0-3.458-.879-6.747-2.523-9.638a19.5 19.5 0 0 0-7.001-7.086c-24.548-14.655-44.986-35.49-59.131-60.378-13.635-23.981-21.43-51.76-21.43-81.382 0-45.553 18.482-86.797 48.331-116.646s71.093-48.302 116.646-48.302c2.608 0-.34-.057 1.361-.028 45.298.369 86.173 18.964 115.767 48.812 29.594 29.82 47.849 70.866 47.849 116.164h-.028c0 2.607.028-.34.028 1.36-.028 1.786.17 3.458.595 5.103a20 20 0 0 0 1.956 4.762l39.515 68.854c.51.907.765 1.842.765 2.75a5.7 5.7 0 0 1-.737 2.778zm-74.438-144.595a33.4 33.4 0 0 0-5.131-12.954 34.1 34.1 0 0 0-9.921-9.808 34.2 34.2 0 0 0-8.391-3.855 29.7 29.7 0 0 0-3.798-7.654c-2.523-3.657-5.839-6.775-9.808-9.042-3.997-2.296-8.362-3.628-12.756-3.968a31 31 0 0 0-7.229.34 57.6 57.6 0 0 0-11.225-13.04 57.3 57.3 0 0 0-19.984-11.14 57.3 57.3 0 0 0-22.734-2.381 57.7 57.7 0 0 0-16.214 4.025c-2.608-2.948-5.754-5.272-9.212-6.945a28.87 28.87 0 0 0-17.915-2.325 28.9 28.9 0 0 0-15.761 8.788 28.9 28.9 0 0 0-6.009 9.864c-13.209-.085-25.682 4.167-35.858 11.594-10.517 7.682-18.567 18.794-22.309 32.003a33.6 33.6 0 0 0-10.63 5.017c-4.535 3.175-8.277 7.455-10.828 12.586s-3.742 10.687-3.572 16.214c.114 4.224 1.049 8.447 2.721 12.387a46.4 46.4 0 0 0-3.94 27.553c1.502 9.071 5.641 17.688 12.246 24.605-.567 5.499 1.361 11.225 5.754 17.178 3.742 5.103 9.468 10.488 17.178 16.214a84.5 84.5 0 0 0-11.14 21.231 83.6 83.6 0 0 0-4.649 31.238c.17 3.742 3.26 6.69 6.973 6.69v.028h24.463c3.685 0 6.718-2.892 6.973-6.52.68-4.507 2.636-8.589 5.839-12.274 3.487-3.997 8.447-7.597 14.91-10.8 9.694-2.523 17.858-8.306 23.471-15.931a42.56 42.56 0 0 0 7.71-18.454c2.069.595 4.11 1.162 6.066 1.729 19.843 5.698 34.526 9.893 50.57 6.718a47.56 47.56 0 0 0 20.466-9.61 47.7 47.7 0 0 0 10.942-12.728 59.05 59.05 0 0 0 57.118-21.94 59.15 59.15 0 0 0 12.246-32.315 58.94 58.94 0 0 0-6.576-31.209 34 34 0 0 0-.057-11.112zm-7.313 41.442c-.567 8.788-3.713 17.376-9.354 24.662a45.16 45.16 0 0 1-21.515 15.166c-8.391 2.75-17.547 3.061-26.419.538v.029c-3.317-.964-6.917.708-8.306 3.968a33.14 33.14 0 0 1-9.553 12.671 33 33 0 0 1-14.343 6.69c-12.784 2.551-26.107-1.276-44.079-6.407a712 712 0 0 0-14.114-3.971 183 183 0 0 0-3.178-1.443c-7.54-3.43-15.42-6.973-20.494-12.075-2.75-2.722-7.172-2.722-9.893 0a6.963 6.963 0 0 0 0 9.893c6.729 6.758 15.659 10.846 24.27 14.733a28.5 28.5 0 0 1-5.476 14.776 28.46 28.46 0 0 1-15.988 10.771 6.1 6.1 0 0 0-1.672.567c-8.476 4.082-15.137 8.9-19.984 14.513-3.685 4.252-6.321 8.873-7.88 13.918h-11.821a68.8 68.8 0 0 1 3.827-19.304 69.8 69.8 0 0 1 13.266-22.706 3 3 0 0 0 .51-.681c2.183-3.175 1.332-7.512-1.843-9.666-9.496-6.435-16.129-12.217-19.871-17.291-2.579-3.487-3.572-6.293-2.948-8.419a7.01 7.01 0 0 0-1.786-8.107 32.33 32.33 0 0 1-10.772-19.247 32.65 32.65 0 0 1 .561-13.167 36.1 36.1 0 0 0 11.827 5.201 35.9 35.9 0 0 0 21.543-1.616 36 36 0 0 0 16.81-13.691c3.94-6.009 6.066-13.238 5.839-20.806-.114-3.855-3.345-6.888-7.2-6.775a6.99 6.99 0 0 0-6.746 7.2c.142 4.592-1.191 9.014-3.6 12.728-2.438 3.713-5.953 6.689-10.233 8.391a21.9 21.9 0 0 1-13.238.935c-4.281-.992-8.249-3.316-11.339-6.775l-.003-.004c-.058-.112-.102-.227-.167-.336-1.672-2.92-2.58-6.151-2.665-9.383a19.9 19.9 0 0 1 2.098-9.581c1.474-2.977 3.713-5.499 6.378-7.398a19.95 19.95 0 0 1 9.128-3.487v-.028a6.945 6.945 0 0 0 6.009-5.556c2.353-11.679 9.014-21.515 18.028-28.12 8.958-6.548 20.296-9.865 32.117-8.617l.142.028c3.827.425 7.285-2.353 7.71-6.18a14.87 14.87 0 0 1 3.884-8.504c2.098-2.268 4.932-3.884 8.164-4.507 3.231-.595 6.463-.142 9.269 1.191a15.06 15.06 0 0 1 6.684 6.34l.076.15.015.03c.035.064.077.122.114.185.073.124.145.249.226.369.091.135.19.263.289.39q.054.073.109.144.477.582 1.054 1.039a15.6 15.6 0 0 1 3.877 4.734c.935 1.814 1.502 3.827 1.672 5.953.255 3.855 3.6 6.775 7.455 6.491a7 7 0 0 0 6.491-7.455c-.312-4.025-1.417-7.909-3.26-11.424-.179-.341-.37-.676-.562-1.01a43.6 43.6 0 0 1 8.527-1.711 43.5 43.5 0 0 1 17.206 1.842c5.613 1.786 10.743 4.649 15.109 8.419a42.7 42.7 0 0 1 10.573 13.634h.024q.144.29.317.571l.027.041q.145.233.311.458.122.16.251.313c.041.049.076.1.119.148 1.474 1.672 2.211 3.77 2.211 5.896s-.737 4.223-2.211 5.868c-2.551 2.891-2.268 7.313.595 9.864 2.891 2.551 7.313 2.268 9.865-.624a22.76 22.76 0 0 0 5.726-15.108c0-1.658-.202-3.313-.563-4.941 2.138.275 4.218.93 6.091 1.993a16.4 16.4 0 0 1 5.272 4.875 16.4 16.4 0 0 1 2.636 6.548c.425 2.976 2.721 5.442 5.839 5.924a19.8 19.8 0 0 1 7.625 2.891 19.5 19.5 0 0 1 5.84 5.754c1.531 2.296 2.551 4.904 3.005 7.597s.368 5.471-.312 8.192a6.88 6.88 0 0 0 .737 5.188 45.1 45.1 0 0 1 6.038 25.71zm-103.408-64.29c-14.031-3.742-29.509-2.154-43.115 5.698h-.028c-13.578 7.852-22.706 20.466-26.476 34.526-3.77 14.032-2.155 29.537 5.698 43.143 7.852 13.578 20.466 22.706 34.498 26.476 14.06 3.771 29.537 2.154 43.115-5.697h.028c13.606-7.824 22.734-20.466 26.504-34.498 3.77-14.06 2.154-29.537-5.698-43.143s-20.466-22.734-34.526-26.504zm26.702 66.019c-2.835 10.602-9.723 20.126-19.984 26.05h.028c-10.261 5.924-21.94 7.115-32.542 4.28s-20.126-9.723-26.05-19.984c-5.896-10.233-7.115-21.94-4.28-32.542 2.863-10.602 9.751-20.126 19.984-26.022v-.028c10.233-5.896 21.94-7.086 32.542-4.252s20.126 9.723 26.05 19.984a42.67 42.67 0 0 1 4.252 32.514m-17.348-28.545a7.05 7.05 0 0 1 0 9.921l-24.01 23.981a6.963 6.963 0 0 1-9.893 0L219.262 221.6c-2.75-2.721-2.75-7.144 0-9.893 2.721-2.721 7.172-2.721 9.893 0l7.71 7.739 19.049-19.077a7.047 7.047 0 0 1 9.921 0zM366.749 97.726l14.712-25.483c1.927-3.345 6.179-4.507 9.524-2.58s4.479 6.179 2.58 9.524l-14.712 25.483c-1.927 3.316-6.179 4.479-9.524 2.551-3.345-1.899-4.479-6.18-2.58-9.496zm-58.535-38.098 7.483-27.978c.992-3.713 4.819-5.924 8.561-4.932s5.953 4.819 4.96 8.561l-7.512 27.978c-.992 3.713-4.819 5.924-8.561 4.932-3.713-.992-5.953-4.819-4.932-8.561zm-158.769-24.35c-.992-3.742 1.247-7.568 4.961-8.561 3.742-.992 7.569 1.219 8.561 4.932l7.484 27.978c1.02 3.742-1.219 7.568-4.932 8.561-3.742.992-7.569-1.219-8.561-4.932l-7.512-27.978zM85.099 79.187c-1.899-3.345-.765-7.597 2.58-9.524 3.345-1.928 7.597-.766 9.524 2.58l14.712 25.483c1.899 3.316.765 7.597-2.579 9.496-3.345 1.927-7.597.765-9.524-2.551L85.1 79.188zm147.232-32.766V16.005c0-3.884 3.146-7.002 7.002-7.002s7.001 3.118 7.001 7.002v30.416c0 3.855-3.146 7.001-7.001 7.001s-7.002-3.146-7.002-7.001"/>
    </g>
</svg>
