<?xml version="1.0" encoding="UTF-8"?>
<svg data-bbox="5.995 22.433 500.01 467.134" xmlns="http://www.w3.org/2000/svg" width="512" viewBox="0 0 512 512" height="512" data-type="shape">
    <g>
        <path d="M96.998 54.137a5 5 0 0 1 8.66-5l18.035 31.237a5 5 0 0 1-8.66 5zM47.064 203.1H10.995a5 5 0 1 0 0 10h36.069a5 5 0 1 0 0-10m269.828-62.298c.848 0 1.708-.216 2.495-.671l31.237-18.035a5 5 0 0 0-5-8.66l-31.237 18.035a4.999 4.999 0 0 0 2.505 9.331m-55.431-53.598a5 5 0 0 0 6.83-1.83l18.035-31.237a5 5 0 1 0-8.66-5l-18.035 31.237a5 5 0 0 0 1.83 6.83m-69.799-18.703a5 5 0 0 0 5-5V27.433a5 5 0 0 0-10 0v36.069a5 5 0 0 0 5 5zM68.936 131.47l-31.237-18.035a5 5 0 0 0-5 8.66l31.237 18.035a5 5 0 0 0 6.83-1.83 5 5 0 0 0-1.83-6.83m423.967 354.592a26 26 0 0 1-13.021 3.505 26.5 26.5 0 0 1-6.864-.91c-6.78-1.817-12.435-6.146-15.924-12.189l-35.57-61.61a5 5 0 0 1-.5-3.794 5 5 0 0 1 2.118-2.885l-11.514-19.943c-12.348 4.374-25.488 6.729-38.924 6.729-10 0-20.155-1.293-30.264-4.002-37.599-10.075-66.018-37.47-78.992-71.303-7.969 16.055-11.85 33.261-11.85 52.588v36.36a5 5 0 0 1-5 5h-19.74c-2.439 17.245-17.289 30.555-35.196 30.555s-32.757-13.31-35.196-30.555h-19.74a5 5 0 0 1-5-5v-36.36c0-19.501-3.945-36.845-12.06-53.022-6.468-12.896-12.869-22.794-19.059-32.366-6.5-10.051-12.639-19.544-17.529-30.748-16.941-38.812-14.568-79.539 6.511-111.739 21.374-32.651 58.579-51.378 102.073-51.378 31.053 0 58.874 9.424 80.453 27.253 18.564 15.338 31.353 36.346 36.595 59.771 26.912-17.579 60.892-24.102 94.312-15.147 62.333 16.703 99.457 81.003 82.755 143.336-6.347 23.687-19.583 43.715-36.958 58.552l11.516 19.947c2.356-1.199 5.258-.379 6.593 1.936l35.57 61.609c7.227 12.519 2.922 28.583-9.595 35.81m-276.181-72.454h-50.121c2.332 11.705 12.681 20.555 25.06 20.555s22.729-8.85 25.06-20.555zm24.876-10v-26.36h-99.873v26.36zm17.603-97.383c-4.687-18.663-4.84-38.729.484-58.598 6.728-25.111 21.185-46.126 40.122-61.184-8.834-50.031-51.911-83.448-108.145-83.448-40.06 0-74.214 17.078-93.707 46.854-19.197 29.326-21.279 66.598-5.712 102.262 4.564 10.457 10.216 19.197 16.761 29.318 6.041 9.341 12.888 19.929 19.601 33.312 8.004 15.957 12.371 33.601 13.024 52.506h45.033v-88.926l-27.832-31.333a5 5 0 0 1 .418-7.059 5 5 0 0 1 7.059.418l25.355 28.545 25.355-28.545a5 5 0 0 1 7.059-.418 5 5 0 0 1 .418 7.059l-27.832 31.333v88.926h45.033c.654-18.905 5.02-36.549 13.024-52.507a250 250 0 0 1 4.482-8.516zm216.916-.605c15.274-57.004-18.683-115.81-75.684-131.09a107 107 0 0 0-27.678-3.659c-47.257 0-90.612 31.578-103.411 79.344-15.275 57.008 18.677 115.814 75.684 131.09 57.011 15.273 115.814-18.677 131.089-75.685m-55.125 78.836 10.797 18.701 19.872-11.473-10.796-18.7a118 118 0 0 1-19.873 11.472m72.846 70.797-33.07-57.279-28.085 16.214 33.07 57.28c2.154 3.73 5.653 6.405 9.852 7.53s8.566.559 12.298-1.596c7.743-4.47 10.405-14.406 5.935-22.149m-39.886-155.572c-5.813 21.695-19.728 39.828-39.179 51.059-12.955 7.479-27.337 11.302-41.906 11.302-7.306 0-14.655-.96-21.901-2.902-44.786-12-71.459-58.198-59.459-102.984 12.001-44.787 58.204-71.458 102.986-59.459 44.786 12.001 71.458 58.2 59.458 102.985zm-62.046-93.327a74 74 0 0 0-19.158-2.532c-32.711 0-62.722 21.857-71.581 54.921-5.122 19.115-2.493 39.081 7.401 56.219 9.895 17.139 25.871 29.397 44.986 34.52 19.115 5.121 39.081 2.495 56.219-7.401 17.138-9.895 29.397-25.871 34.52-44.986 10.572-39.457-12.932-80.162-52.387-90.739zm10.48 43.292-44.866 44.867-13.651-23.646a5 5 0 0 0-8.66 5l16.909 29.288a5 5 0 0 0 7.865 1.035l49.474-49.475a4.999 4.999 0 1 0-7.071-7.07z"/>
    </g>
</svg>
