<?xml version="1.0" encoding="UTF-8"?>
<svg data-bbox="27.73 10 456.59 491.99" xmlns="http://www.w3.org/2000/svg" viewBox="0 0 512 512" data-type="shape">
    <g>
        <path d="M478.31 10H270.35q-.3 0-.6.03c-.15.02-.3.04-.45.07-.04 0-.09.01-.13.02-.18.04-.35.08-.52.13-.01 0-.03 0-.04.01-.18.05-.35.12-.51.18-.01 0-.02 0-.04.01-.16.07-.31.14-.47.22l-.06.03c-.14.08-.28.16-.41.25l-.09.06c-.13.09-.25.18-.38.28-.03.02-.06.05-.09.07-.15.13-.3.26-.44.4L178.18 99.7c-.14.14-.27.29-.4.44-.03.03-.05.07-.08.11-.09.12-.19.24-.27.37-.03.04-.05.08-.07.12-.08.13-.16.26-.23.39-.02.03-.03.06-.04.09-.07.14-.15.29-.21.44 0 .02-.02.04-.02.07-.06.16-.12.32-.17.49 0 .02-.01.05-.02.07-.05.16-.09.33-.12.49-.01.05-.01.1-.02.15-.02.14-.05.28-.06.43q-.03.3-.03.6v88.75c-4.81.18-9.61.58-14.36 1.2-2.68.35-4.8 2.46-5.16 5.14l-4.13 30.51a120.3 120.3 0 0 0-32.61 13.52l-24.49-18.65a6.016 6.016 0 0 0-7.29.01 155.6 155.6 0 0 0-28.8 28.81 5.99 5.99 0 0 0-.01 7.28l18.65 24.49a120.3 120.3 0 0 0-13.52 32.61l-30.51 4.13a5.994 5.994 0 0 0-5.14 5.16c-.89 6.74-1.34 13.59-1.34 20.36s.45 13.63 1.34 20.36c.35 2.68 2.46 4.8 5.14 5.16l30.5 4.13c2.88 11.49 7.42 22.42 13.52 32.61l-18.65 24.49a6.016 6.016 0 0 0 .01 7.29c8.3 10.83 17.99 20.52 28.81 28.8a5.99 5.99 0 0 0 7.28.01l24.49-18.65c10.18 6.1 21.12 10.63 32.61 13.52l4.13 30.51a5.994 5.994 0 0 0 5.16 5.14c6.74.89 13.59 1.34 20.36 1.34s13.63-.45 20.36-1.34c2.68-.35 4.8-2.46 5.16-5.14l4.13-30.5a120.2 120.2 0 0 0 32.61-13.52l24.49 18.65a6.016 6.016 0 0 0 7.29-.01c10.82-8.3 20.51-17.99 28.8-28.81a6 6 0 0 0 .01-7.29l-16.69-21.93h189.73c3.31 0 6-2.69 6-6V16c0-3.31-2.69-6-6-6zM264.35 30.49v67.45h-67.46zm8.38 427.29-24.08-18.33a6 6 0 0 0-6.9-.26c-11.16 7.22-23.38 12.29-36.34 15.07a6 6 0 0 0-4.69 5.06l-4.06 29.98c-9.49.94-19.04.94-28.52 0l-4.06-29.99a5.99 5.99 0 0 0-4.69-5.06c-12.96-2.77-25.18-7.84-36.34-15.06a6.02 6.02 0 0 0-6.9.26l-24.08 18.33a143.5 143.5 0 0 1-20.17-20.17l18.33-24.08a6 6 0 0 0 .26-6.9c-7.22-11.16-12.29-23.38-15.07-36.34a6 6 0 0 0-5.06-4.69l-29.98-4.06c-.47-4.74-.71-9.52-.71-14.26s.24-9.52.71-14.26l29.99-4.06a5.99 5.99 0 0 0 5.06-4.69c2.77-12.95 7.84-25.18 15.06-36.34a6.005 6.005 0 0 0-.26-6.89L71.9 256.96c6.03-7.37 12.79-14.13 20.17-20.17l24.08 18.33a5.99 5.99 0 0 0 6.89.26c11.16-7.22 23.38-12.29 36.33-15.06a6 6 0 0 0 4.69-5.06l4.06-29.99c9.48-.94 19.03-.94 28.52 0l4.06 29.99a5.99 5.99 0 0 0 4.69 5.06c12.96 2.77 25.18 7.84 36.33 15.06a6.005 6.005 0 0 0 6.89-.26l24.08-18.33a144 144 0 0 1 20.17 20.17l-18.33 24.08a6 6 0 0 0-.26 6.9 108.5 108.5 0 0 1 15.07 36.34 6 6 0 0 0 5.06 4.69l29.98 4.06c.47 4.74.71 9.52.71 14.26s-.24 9.52-.71 14.26l-29.99 4.06a6 6 0 0 0-5.06 4.69c-2.77 12.96-7.84 25.18-15.06 36.34a6.02 6.02 0 0 0 .26 6.9l18.33 24.08a143.5 143.5 0 0 1-20.17 20.17zm199.58-57.66h-180.6c3.59-7.41 6.42-15.15 8.44-23.17l30.51-4.13a5.994 5.994 0 0 0 5.14-5.16c.89-6.74 1.34-13.59 1.34-20.36s-.45-13.62-1.34-20.36a5.994 5.994 0 0 0-5.14-5.16l-30.5-4.13a120.2 120.2 0 0 0-13.52-32.61l18.65-24.49a6.016 6.016 0 0 0-.01-7.29 155.6 155.6 0 0 0-28.81-28.8 6 6 0 0 0-7.29-.01l-24.49 18.65a120.5 120.5 0 0 0-32.61-13.52l-4.13-30.51a5.994 5.994 0 0 0-5.16-5.14c-4.76-.63-9.56-1.02-14.36-1.2v-82.79h81.94c3.31 0 6-2.69 6-6V22h195.96v378.11zM293.15 62.44c0-3.31 2.69-6 6-6h74.39c3.31 0 6 2.69 6 6s-2.69 6-6 6h-74.39c-3.31 0-6-2.69-6-6m6 49.66c-3.31 0-6-2.69-6-6s2.69-6 6-6h74.39c3.31 0 6 2.69 6 6s-2.69 6-6 6zm103.19-2.16H446c3.31 0 6-2.69 6-6V60.28c0-3.31-2.69-6-6-6h-43.66c-3.31 0-6 2.69-6 6v43.66c0 3.31 2.69 6 6 6m6-43.66H440v31.66h-31.66zM446 307.05h-25.03v-19.53c0-3.31-2.69-6-6-6h-56.95c-3.31 0-6 2.69-6 6v56.95c0 3.31 2.69 6 6 6h25.03V370c0 3.31 2.69 6 6 6H446c3.31 0 6-2.69 6-6v-56.95c0-3.31-2.69-6-6-6m-81.99-13.53h44.95v44.95h-44.95zM440 364.01h-44.95v-13.53h19.92c3.31 0 6-2.69 6-6v-25.42H440zM182.4 264.6c-45.59 0-82.69 37.09-82.69 82.69 0 25.1 11.26 47.61 28.97 62.79.34.37.72.71 1.14.99 10.26 8.47 22.59 14.52 36.11 17.26.26.06.52.11.8.14 5.08.98 10.31 1.51 15.67 1.51 6.15 0 12.13-.7 17.9-1.97.39-.05.76-.14 1.12-.26a82.5 82.5 0 0 0 33.22-16.42c.65-.37 1.22-.86 1.68-1.43 17.59-15.17 28.76-37.6 28.76-62.6 0-45.59-37.09-82.69-82.69-82.69zm-21.05 150.17c-8.13-2.54-15.63-6.53-22.21-11.64V359.8h22.21v54.98zm12 2.6V309.36h20.16v107.73c-3.62.57-7.33.88-11.11.88-3.07 0-6.08-.22-9.05-.6m52.31-14.24a70.5 70.5 0 0 1-20.16 10.95V334.2h20.16zm12-11.84V328.2c0-3.31-2.69-6-6-6H205.5v-18.84c0-3.31-2.69-6-6-6h-32.16c-3.31 0-6 2.69-6 6v44.43h-28.21c-3.31 0-6 2.69-6 6v37.49c-9.64-12.08-15.42-27.37-15.42-44 0-38.98 31.71-70.69 70.69-70.69s70.69 31.71 70.69 70.69c0 16.62-5.78 31.92-15.42 44zm214.33-250.63c0 3.31-2.69 6-6 6H272.86c-3.31 0-6-2.69-6-6s2.69-6 6-6h173.13c3.31 0 6 2.69 6 6m0 28.08c0 3.31-2.69 6-6 6H272.86c-3.31 0-6-2.69-6-6s2.69-6 6-6h173.13c3.31 0 6 2.69 6 6m0 28.08c0 3.31-2.69 6-6 6H272.86c-3.31 0-6-2.69-6-6s2.69-6 6-6h173.13c3.31 0 6 2.69 6 6m0 28.08c0 3.31-2.69 6-6 6H336.5c-3.31 0-6-2.69-6-6s2.69-6 6-6h109.49c3.31 0 6 2.69 6 6m0 28.08c0 3.31-2.69 6-6 6H337.12c-3.31 0-6-2.69-6-6s2.69-6 6-6h108.87c3.31 0 6 2.69 6 6"/>
    </g>
</svg>
