
        <svg xmlns="http://www.w3.org/2000/svg" xmlns:xlink="http://www.w3.org/1999/xlink" version="1.1" width="3162.113479435605" height="477.33413389372555" viewBox="0 0 3162.113479435605 477.33413389372555">
			
			<g transform="scale(8.105673971780245) translate(10, 10)">
				<defs id="SvgjsDefs10604"/><g id="SvgjsG10605" featureKey="symbolFeature-0" transform="matrix(0.6172839506172839,0,0,0.6172839506172839,-11.11111111111111,-11.11111111111111)" fill="#fff"><g xmlns="http://www.w3.org/2000/svg"><rect x="18" y="63" width="18" height="18"/><rect x="45" y="63" width="18" height="18"/><rect x="18" y="36" width="18" height="18"/><rect x="63" y="18" width="18" height="18"/></g></g><g id="SvgjsG10606" featureKey="nameFeature-0" transform="matrix(0.9900430269205068,0,0,0.9900430269205068,57.930756438995964,-9.217239014789442)" fill="#fff"><path d="M1.68 19.16 l1.92 0 l6.44 8.84 l6.44 -8.84 l1.88 0 l-7.28 10.08 l7.8 10.76 l-1.92 0 l-6.96 -9.48 l-7 9.48 l-1.92 0 l7.88 -10.76 z M40.18 20.46 q2.3 1.34 3.58 3.72 t1.28 5.42 q0 3 -1.28 5.38 t-3.56 3.72 t-5.2 1.34 q-3.04 0 -5.34 -1.46 t-3.5 -4.02 l0 13.2 l-1.68 0 l0 -28.6 l1.68 0 l0 5.48 q1.2 -2.6 3.5 -4.06 t5.34 -1.46 q2.88 0 5.18 1.34 z M39.22 37.34 q1.98 -1.14 3.08 -3.16 t1.1 -4.58 t-1.1 -4.58 t-3.08 -3.18 t-4.46 -1.16 t-4.44 1.16 t-3.06 3.18 t-1.1 4.58 t1.1 4.58 t3.06 3.16 t4.44 1.14 t4.46 -1.14 z M64.26 20.5 q2.22 1.38 3.36 3.86 t1.1 5.68 l-18.2 0 q0.12 2.52 1.24 4.44 t3.04 2.98 t4.32 1.06 q2.12 0 3.94 -0.74 t3.1 -2.14 l0.96 1.08 q-1.48 1.6 -3.56 2.46 t-4.52 0.86 q-2.92 0 -5.24 -1.34 t-3.62 -3.72 t-1.3 -5.38 t1.32 -5.4 t3.62 -3.74 t5.22 -1.34 q3 0 5.22 1.38 z M67.2 28.560000000000002 q-0.24 -3.6 -2.44 -5.76 t-5.72 -2.16 t-5.84 2.18 t-2.64 5.74 l16.64 0 z M93.16 10.32 l0 29.68 l-1.68 0 l0 -5.44 q-1.2 2.6 -3.52 4.08 t-5.36 1.48 q-2.92 0 -5.24 -1.36 t-3.62 -3.74 t-1.3 -5.42 t1.3 -5.44 t3.6 -3.76 t5.22 -1.36 q3.08 0 5.4 1.48 t3.52 4.08 l0 -14.28 l1.68 0 z M87.25999999999999 37.4 q1.98 -1.16 3.1 -3.2 t1.12 -4.6 t-1.12 -4.6 t-3.1 -3.2 t-4.46 -1.16 t-4.46 1.16 t-3.12 3.2 t-1.14 4.6 t1.12 4.6 t3.1 3.2 t4.5 1.16 q2.48 0 4.46 -1.16 z M101.67999999999999 19.16 l1.64 0 l0 20.84 l-1.64 0 l0 -20.84 z M103.5 12.14 q0.42 0.42 0.42 1.02 q0 0.64 -0.42 1.06 t-0.98 0.42 t-0.98 -0.42 t-0.42 -1.06 q0 -0.6 0.42 -1.02 t0.98 -0.42 t0.98 0.42 z M121.47999999999999 38.56 q-2.2 1.48 -4.44 1.48 t-3.44 -1.46 t-1.2 -4.34 l0 -13.12 l-3.04 0 l0 -1.44 l3.04 0 l0 -5.16 l1.6 0 l0 5.16 l7.08 0 l0 1.44 l-7.08 0 l0 12.92 q0 4.36 3.24 4.36 q1.84 0 3.6 -1.2 z M139.7 20.5 q2.22 1.38 3.36 3.86 t1.1 5.68 l-18.2 0 q0.12 2.52 1.24 4.44 t3.04 2.98 t4.32 1.06 q2.12 0 3.94 -0.74 t3.1 -2.14 l0.96 1.08 q-1.48 1.6 -3.56 2.46 t-4.52 0.86 q-2.92 0 -5.24 -1.34 t-3.62 -3.72 t-1.3 -5.38 t1.32 -5.4 t3.62 -3.74 t5.22 -1.34 q3 0 5.22 1.38 z M142.64 28.560000000000002 q-0.24 -3.6 -2.44 -5.76 t-5.72 -2.16 t-5.84 2.18 t-2.64 5.74 l16.64 0 z M177.49999999999997 20.46 q2.3 1.34 3.58 3.72 t1.28 5.42 q0 3 -1.28 5.38 t-3.56 3.72 t-5.2 1.34 q-3.04 0 -5.34 -1.46 t-3.5 -4.02 l0 13.2 l-1.68 0 l0 -28.6 l1.68 0 l0 5.48 q1.2 -2.6 3.5 -4.06 t5.34 -1.46 q2.88 0 5.18 1.34 z M176.53999999999996 37.34 q1.98 -1.14 3.08 -3.16 t1.1 -4.58 t-1.1 -4.58 t-3.08 -3.18 t-4.46 -1.16 t-4.44 1.16 t-3.06 3.18 t-1.1 4.58 t1.1 4.58 t3.06 3.16 t4.44 1.14 t4.46 -1.14 z M201.83999999999997 40 l-0.04 -4.12 q-1.28 2.12 -3.42 3.14 t-4.9 1.02 q-2.04 0 -3.6 -0.8 t-2.42 -2.18 t-0.86 -3.14 q0 -2.6 2.08 -4.1 t5.68 -1.5 l7.4 0 l0 -2.04 q-0.04 -2.68 -1.6 -4.16 t-4.64 -1.48 q-1.88 0 -3.56 0.7 t-3.44 2.02 l-0.8 -1.28 q2.04 -1.48 3.92 -2.22 t4.12 -0.74 q3.64 0 5.62 1.88 t2.02 5.16 l0.08 13.84 l-1.64 0 z M198.79999999999998 37.2 q2.08 -1.32 3 -4 l0 -3.4 l-7.28 0 q-3.08 0 -4.7 1.04 t-1.62 3.04 q0 2.08 1.5 3.36 t4.02 1.28 q3 0 5.08 -1.32 z M215.77999999999997 20.54 q1.98 -1.34 4.78 -1.42 l0 1.72 q-3.4 0 -5.44 2.1 t-2.32 5.78 l0 11.28 l-1.68 0 l0 -20.84 l1.68 0 l0 5.24 q1 -2.52 2.98 -3.86 z M234.92 38.56 q-2.2 1.48 -4.44 1.48 t-3.44 -1.46 t-1.2 -4.34 l0 -13.12 l-3.04 0 l0 -1.44 l3.04 0 l0 -5.16 l1.6 0 l0 5.16 l7.08 0 l0 1.44 l-7.08 0 l0 12.92 q0 4.36 3.24 4.36 q1.84 0 3.6 -1.2 z M256.14 21.3 q2.14 2.18 2.14 5.98 l0 12.72 l-1.68 0 l0 -12.4 q0 -3.2 -1.8 -5 t-5 -1.8 q-3.56 0.08 -5.7 2.18 t-2.42 5.74 l0 11.28 l-1.68 0 l0 -20.84 l1.68 0 l0 5.32 q1.04 -2.56 3.22 -3.92 t5.3 -1.44 q3.8 0 5.94 2.18 z M279.06 20.5 q2.22 1.38 3.36 3.86 t1.1 5.68 l-18.2 0 q0.12 2.52 1.24 4.44 t3.04 2.98 t4.32 1.06 q2.12 0 3.94 -0.74 t3.1 -2.14 l0.96 1.08 q-1.48 1.6 -3.56 2.46 t-4.52 0.86 q-2.92 0 -5.24 -1.34 t-3.62 -3.72 t-1.3 -5.38 t1.32 -5.4 t3.62 -3.74 t5.22 -1.34 q3 0 5.22 1.38 z M282 28.560000000000002 q-0.24 -3.6 -2.44 -5.76 t-5.72 -2.16 t-5.84 2.18 t-2.64 5.74 l16.64 0 z M294.14 20.54 q1.98 -1.34 4.78 -1.42 l0 1.72 q-3.4 0 -5.44 2.1 t-2.32 5.78 l0 11.28 l-1.68 0 l0 -20.84 l1.68 0 l0 5.24 q1 -2.52 2.98 -3.86 z M308.36 20.64 q-2.32 0 -3.76 0.9 t-1.44 2.7 q0 1.2 0.72 2 t1.8 1.24 t2.92 1 q2.2 0.68 3.52 1.28 t2.26 1.72 t0.94 2.96 q0 2.76 -2.08 4.18 t-5.16 1.42 q-2.2 0 -4.2 -0.76 t-3.44 -2.12 l0.76 -1.28 q1.36 1.28 3.18 1.96 t3.78 0.68 q2.4 0 3.98 -1 t1.58 -2.92 q0 -1.28 -0.74 -2.1 t-1.86 -1.3 t-3 -1.04 q-2.16 -0.68 -3.44 -1.26 t-2.2 -1.68 t-0.92 -2.86 q0 -2.6 1.94 -3.92 t4.9 -1.32 q3.28 0 5.96 1.64 l-0.72 1.36 q-2.32 -1.48 -5.28 -1.48 z"/></g>
			</g>
		</svg>
	