<?xml version="1.0" encoding="UTF-8"?>
<svg data-bbox="10.708 7.906 490.913 496.031" xmlns="http://www.w3.org/2000/svg" viewBox="0 0 512 512" data-type="shape">
    <g>
        <path d="M493.612 7.906H262.674q-.403 0-.799.04c-.199.02-.393.054-.587.088-.063.011-.127.016-.19.029a8 8 0 0 0-.683.172l-.074.019a8 8 0 0 0-.67.24l-.066.024a8 8 0 0 0-.612.289l-.097.047a8 8 0 0 0-.529.317c-.048.031-.098.057-.145.088a8 8 0 0 0-.462.342c-.055.043-.114.081-.169.126a8 8 0 0 0-.512.463l-.068.062-87.789 87.789-.061.068a8 8 0 0 0-.463.512c-.045.054-.083.113-.126.169a8 8 0 0 0-.342.462c-.032.047-.058.097-.088.145a8 8 0 0 0-.317.529l-.047.097a8 8 0 0 0-.289.612l-.024.066a8 8 0 0 0-.24.67l-.019.074a8 8 0 0 0-.172.683c-.013.063-.018.127-.029.19-.034.194-.068.388-.088.587q-.04.397-.04.799v21.829c-25.531 4.432-50.353 13.37-73.466 26.71-33.974 19.612-62.21 47.85-81.656 81.66-1.138 1.978-1.349 4.432-.631 6.598a8 8 0 0 0 .667 1.486c24.902 43.112 62.595 75.955 107.894 94.581l-14.318 24.793c-8.78-.556-17.546 3.766-22.229 11.883l-46.745 80.96c-3.18 5.513-4.021 11.946-2.369 18.116 1.653 6.175 5.601 11.327 11.111 14.505l24.099 13.92a23.75 23.75 0 0 0 11.9 3.192c8.262 0 16.307-4.284 20.721-11.937l46.743-80.957v-.003c4.683-8.116 4.045-17.861-.815-25.18l19.094-33.078v77.388a8.01 8.01 0 0 0 8.008 8.008h318.728a8.01 8.01 0 0 0 8.008-8.008V15.914a8.01 8.01 0 0 0-8.008-8.008zm-238.946 27.34v60.449h-60.449zm127.168 202.713c-17.948 29.595-43.258 54.349-73.445 71.776a208 208 0 0 1-23.741 11.759c22.068-21.057 35.838-50.736 35.838-83.571s-13.679-62.328-35.619-83.378c39.083 16.322 73.476 44.677 96.967 83.414M199.54 138.502q5.642-.136 11.267.034c52.163 3.066 93.663 46.468 93.663 99.387 0 53.458-42.374 97.202-95.306 99.441q-4.738.089-9.464-.038c-52.477-2.716-94.335-46.263-94.335-99.403s41.774-96.625 94.176-99.422zM27.987 237.907c17.934-29.605 43.239-54.366 73.43-71.794a208 208 0 0 1 23.734-11.754c-22.047 21.061-35.802 50.736-35.802 83.565s13.686 62.335 35.634 83.381c-39.086-16.318-73.488-44.667-96.997-83.398zm119.214 107.966c1.5.402 3.002.782 4.505 1.153l-16.552 28.675-14.679-8.479 14.452-25.025a228 228 0 0 0 12.274 3.676m-12.475 57.164-46.743 80.957c-2.167 3.754-6.987 5.044-10.743 2.878l-24.099-13.92a7.8 7.8 0 0 1-3.646-4.776 7.82 7.82 0 0 1 .77-5.969l46.745-80.96a7.864 7.864 0 0 1 10.742-2.878l24.099 13.92c3.754 2.166 5.044 6.987 2.875 10.748m350.878 19.124H182.892v-69.73a222 222 0 0 0 22.391 1.138c38.632 0 76.763-10.133 111.113-29.964 1.134-.655 2.245-1.344 3.366-2.018h50.599c4.423 0 8.008-3.585 8.008-8.008s-3.585-8.008-8.008-8.008h-27.397c22.215-17.503 40.988-39.086 55.115-63.625a8.01 8.01 0 0 0-.17-8.273 224.6 224.6 0 0 0-31.167-41.828h85.37c4.423 0 8.008-3.585 8.008-8.008s-3.585-8.008-8.008-8.008H349.939c-24.969-21.396-54.611-37.107-87.313-45.868-26.395-7.071-53.328-9.217-79.735-6.609V111.71h79.781a8.01 8.01 0 0 0 8.008-8.008V23.921h214.923zM306.852 96.814a8.01 8.01 0 0 1 8.008-8.008h137.253c4.423 0 8.008 3.585 8.008 8.008s-3.585 8.008-8.008 8.008H314.86a8.01 8.01 0 0 1-8.008-8.008m153.269 43.512a8.01 8.01 0 0 1-8.008 8.008H337.565c-4.423 0-8.008-3.585-8.008-8.008s3.585-8.008 8.008-8.008h114.548a8.01 8.01 0 0 1 8.008 8.008m0 86.996a8.01 8.01 0 0 1-8.008 8.008h-16.696c-4.423 0-8.008-3.585-8.008-8.008s3.585-8.008 8.008-8.008h16.696a8.01 8.01 0 0 1 8.008 8.008m0 43.511a8.01 8.01 0 0 1-8.008 8.008h-58.677c-4.423 0-8.008-3.585-8.008-8.008s3.585-8.008 8.008-8.008h58.677a8.01 8.01 0 0 1 8.008 8.008m-59.119 50.754a8.007 8.007 0 0 1-7.891-8.122c.063-4.422 3.708-7.962 8.123-7.892l50.995.736a8.008 8.008 0 0 1-.113 16.015h-.118zm59.119 36.241a8.01 8.01 0 0 1-8.008 8.008H266.869c-4.423 0-8.008-3.585-8.008-8.008s3.585-8.008 8.008-8.008h185.244a8.01 8.01 0 0 1 8.008 8.008m-314.654-60.47c16.391 16.391 37.92 24.586 59.45 24.586s43.06-8.195 59.45-24.586c32.781-32.78 32.781-86.119 0-118.899l-.003-.002c-32.779-32.749-86.115-32.747-118.897.002-32.781 32.781-32.781 86.119 0 118.899m13.716-9.052c.805-12.195 12.916-21.91 27.692-21.91h36.085c14.776 0 26.888 9.715 27.692 21.91-25.868 23.501-65.601 23.501-91.469 0m45.72-37.925c-13.153 0-23.854-10.701-23.854-23.853s10.701-23.854 23.854-23.854 23.854 10.701 23.854 23.854-10.701 23.853-23.854 23.853m-48.113-60.594c13.269-13.256 30.698-19.884 48.128-19.884s34.859 6.628 48.127 19.884c22.693 22.697 25.959 57.561 9.83 83.78-5.168-10.296-15.144-18.245-27.357-21.531 5.774-6.918 9.255-15.812 9.255-25.507 0-21.984-17.885-39.869-39.869-39.869s-39.869 17.885-39.869 39.869c0 9.697 3.484 18.594 9.261 25.513-12.203 3.29-22.169 11.236-27.334 21.525-16.131-26.22-12.866-61.084 9.829-83.78z"/>
    </g>
</svg>
