<?xml version="1.0" encoding="UTF-8"?>
<svg data-bbox="11.053 7.994 489.894 496.011" xmlns="http://www.w3.org/2000/svg" viewBox="0 0 512 512" data-type="shape">
    <g>
        <path d="m249.76 67.675 24.238 17.538-9.299 28.436a12.45 12.45 0 0 0 4.53 13.988 12.46 12.46 0 0 0 14.704-.014l24.17-17.632 24.17 17.632a12.45 12.45 0 0 0 14.703.013 12.455 12.455 0 0 0 4.53-13.987l-9.3-28.437 24.239-17.539a12.46 12.46 0 0 0 4.556-13.978 12.455 12.455 0 0 0-11.879-8.633h-.025l-29.918.058-9.19-28.469c-1.669-5.178-6.447-8.657-11.888-8.657s-10.216 3.479-11.887 8.655l-9.19 28.471-29.918-.058h-.025a12.455 12.455 0 0 0-11.878 8.63 12.46 12.46 0 0 0 4.556 13.981zm39.793-6.549h.025a12.455 12.455 0 0 0 11.887-8.654l6.637-20.562 6.638 20.563a12.45 12.45 0 0 0 11.885 8.653h.025l21.608-.042-17.504 12.667a12.45 12.45 0 0 0-4.551 14.002l6.717 20.538-17.456-12.734a12.45 12.45 0 0 0-14.724 0l-17.457 12.734 6.716-20.537a12.45 12.45 0 0 0-4.549-14.003l-17.505-12.667 21.607.042zm206.284 254.351c-10.538-18.251-33.959-24.528-52.209-13.989l-3.594 2.075a38.5 38.5 0 0 0-10.122-12.248c15.043-16.084 23.31-36.935 23.31-59.066 0-23.123-9.005-44.862-25.355-61.214-33.753-33.752-88.674-33.752-122.427 0-16.351 16.352-25.355 38.091-25.355 61.214s9.005 44.863 25.355 61.214a88 88 0 0 0 10.091 8.66l-17.097 17.097-103.439-27.716c-10.148-3.281-22.578-1.994-31.743 3.299l-77.646 44.829-6.287-10.889c-6.292-10.898-20.277-14.645-31.176-8.354L22.46 335.216c-10.898 6.294-14.646 20.28-8.354 31.178L86.97 492.597c3.041 5.266 7.963 9.036 13.863 10.616 1.976.529 3.979.792 5.969.792 3.95 0 7.843-1.033 11.344-3.055l25.684-14.828c5.265-3.041 9.036-7.965 10.616-13.863 1.581-5.899.777-12.049-2.264-17.313l-6.286-10.888 10.741-6.201c4.981-2.876 6.933-2.816 14.479-1.143L282.95 466.68a47 47 0 0 0 12.162 1.609c8.149 0 16.208-2.146 23.483-6.347l163.254-94.254c8.812-5.088 15.124-13.334 17.772-23.218s1.304-20.181-3.784-28.993m-164.538 49.148a8 8 0 0 0 .931-.787l45.778-45.778c14.388-1.874 27.942-7.289 39.623-15.837a22.3 22.3 0 0 1 8.546 9.339l-95.56 55.171c.25-.689.472-1.394.682-2.108m-35.216-132.376c0-18.85 7.34-36.571 20.669-49.899 27.516-27.51 72.286-27.514 99.8 0 13.329 13.328 20.669 31.05 20.669 49.899s-7.34 36.571-20.669 49.899-31.05 20.67-49.9 20.67-36.571-7.341-49.9-20.67c-13.329-13.328-20.669-31.05-20.669-49.899m59.287 85.821-24.84 24.84a35 35 0 0 0-2.475-5.263c-3.104-5.377-7.483-9.716-12.713-12.71l14.354-14.354c8.066 3.812 16.711 6.327 25.673 7.487zM138.99 468.118a6.77 6.77 0 0 1-3.163 4.147l-25.683 14.828c-1.563.903-3.401 1.138-5.172.665a6.77 6.77 0 0 1-4.147-3.162L27.962 358.393c-1.881-3.258-.76-7.439 2.499-9.321l25.682-14.826a6.83 6.83 0 0 1 9.32 2.496l72.863 126.204a6.77 6.77 0 0 1 .665 5.172zM484.166 340.33c-1.542 5.756-5.206 10.551-10.317 13.502l-163.254 94.255c-7.199 4.155-15.546 5.271-23.504 3.138l-112.002-30.011a8 8 0 0 0-.333-.081c-9.224-2.052-16.025-2.962-26.12 2.868l-10.74 6.201-44.291-76.715 77.647-44.829c5.292-3.055 13.083-3.832 18.946-1.89q.22.074.446.134l112.341 30.102c4.749 1.272 8.732 4.342 11.215 8.644s3.15 9.286 1.878 14.035c-2.59 9.664-12.362 15.184-22.247 12.578l-84.486-22.369a8 8 0 0 0-4.095 15.467l84.434 22.355.028.009.031.008 13.428 3.555c10.004 2.65 15.665.728 28.706-6.804l119.751-69.138c10.61-6.123 24.227-2.478 30.353 8.134 2.951 5.111 3.727 11.097 2.186 16.853zM93.387 206.779l11.191 2.545a75 75 0 0 0 3.362 8.106l-6.116 9.717c-4.391 6.977-3.954 14.759 1.114 19.826l10.165 10.164c5.067 5.067 12.85 5.505 19.825 1.113l9.712-6.113a75 75 0 0 0 8.112 3.364l2.544 11.186c1.827 8.038 7.639 13.232 14.806 13.232h14.375c7.167 0 12.979-5.194 14.806-13.231l2.545-11.191a75 75 0 0 0 8.107-3.362l9.716 6.116c6.978 4.39 14.758 3.954 19.826-1.113l10.165-10.164c5.068-5.068 5.505-12.851 1.114-19.826l-6.113-9.712a75 75 0 0 0 3.363-8.112l11.187-2.544c8.038-1.828 13.232-7.64 13.232-14.807v-14.375c0-7.165-5.193-12.977-13.232-14.807l-11.188-2.544a75 75 0 0 0-3.363-8.109l6.115-9.715c4.392-6.976 3.955-14.758-1.113-19.826l-10.165-10.164c-5.067-5.067-12.85-5.505-19.826-1.113l-9.716 6.116a75 75 0 0 0-8.107-3.362l-2.545-11.19c-1.827-8.038-7.639-13.232-14.806-13.232h-14.375c-7.167 0-12.979 5.194-14.806 13.231l-2.545 11.191a75 75 0 0 0-8.106 3.362l-9.716-6.116c-6.976-4.39-14.758-3.955-19.826 1.113l-10.165 10.164c-5.067 5.067-5.504 12.85-1.114 19.826l6.114 9.713a75 75 0 0 0-3.363 8.111l-11.189 2.544c-8.037 1.83-13.229 7.642-13.229 14.807v14.375c0 7.167 5.194 12.979 13.231 14.807zm2.769-28.152c.203-.079.462-.162.779-.234l15.679-3.565a8 8 0 0 0 5.939-5.68 58.5 58.5 0 0 1 5.562-13.414 8 8 0 0 0-.182-8.22l-8.569-13.614a5.5 5.5 0 0 1-.385-.717l8.708-8.708c.199.088.441.212.717.386l13.618 8.571a8 8 0 0 0 8.217.183 58.5 58.5 0 0 1 13.41-5.561 8 8 0 0 0 5.68-5.939l3.567-15.685c.072-.317.155-.577.234-.779h12.315c.079.203.162.462.234.78l3.567 15.684a8 8 0 0 0 5.68 5.939 58.4 58.4 0 0 1 13.411 5.561 8 8 0 0 0 8.218-.183l13.618-8.571c.275-.174.517-.298.716-.386l8.708 8.708a6 6 0 0 1-.386.717l-8.571 13.617a8 8 0 0 0-.182 8.219 58.5 58.5 0 0 1 5.562 13.412 8 8 0 0 0 5.94 5.68l15.679 3.565c.319.072.579.155.782.235v12.315a5.5 5.5 0 0 1-.78.234l-15.679 3.565a8 8 0 0 0-5.94 5.68 58.5 58.5 0 0 1-5.562 13.416 8 8 0 0 0 .182 8.219l8.569 13.613c.173.275.298.518.385.717l-8.708 8.708a6 6 0 0 1-.717-.386l-13.618-8.571a8 8 0 0 0-8.218-.183 58.5 58.5 0 0 1-13.411 5.562 8 8 0 0 0-5.679 5.939l-3.567 15.684a5.5 5.5 0 0 1-.234.779h-12.315a5.5 5.5 0 0 1-.234-.78l-3.566-15.679a8 8 0 0 0-5.679-5.939 58.5 58.5 0 0 1-13.417-5.562 8 8 0 0 0-8.218.183l-13.614 8.568a5.5 5.5 0 0 1-.716.386l-8.708-8.708c.087-.199.211-.441.385-.717l8.572-13.618a8 8 0 0 0 .183-8.218 58.6 58.6 0 0 1-5.562-13.411 8 8 0 0 0-5.939-5.68l-15.683-3.566a5.5 5.5 0 0 1-.779-.234v-12.316zm79.134 45.264c21.562 0 39.105-17.543 39.105-39.105s-17.542-39.105-39.105-39.105-39.105 17.543-39.105 39.105 17.542 39.105 39.105 39.105m0-62.211c12.74 0 23.105 10.365 23.105 23.105S188.03 207.89 175.29 207.89s-23.105-10.365-23.105-23.105 10.365-23.105 23.105-23.105m157.46 80.707a8 8 0 1 1 11.314-11.313l11.727 11.728 33.068-38.076a8 8 0 0 1 11.286-.795 8 8 0 0 1 .794 11.285l-38.696 44.558a8 8 0 0 1-11.697.411z"/>
    </g>
</svg>
