<?xml version="1.0" encoding="UTF-8"?>
<svg data-bbox="82.859 8.193 346.592 496.007" xmlns="http://www.w3.org/2000/svg" viewBox="0 0 512 512" data-type="shape">
    <g>
        <path d="M256.155 146.241c38.052 0 69.009-30.971 69.009-69.038s-30.957-69.01-69.009-69.01-69.038 30.958-69.038 69.01 30.971 69.038 69.038 69.038m0-122.032c29.221 0 52.993 23.773 52.993 52.994s-23.772 53.022-52.993 53.022-53.022-23.786-53.022-53.022 23.786-52.994 53.022-52.994m-32.2 51.744a8.008 8.008 0 0 1 12.921-9.463l10.656 14.553 29.087-25.457a8.01 8.01 0 0 1 11.3.752 8.01 8.01 0 0 1-.752 11.301l-35.661 31.21a8 8 0 0 1-6.151 1.933 8 8 0 0 1-5.583-3.229zM90.867 310.396h330.576a8.01 8.01 0 0 0 8.008-8.008c0-30.066-18.34-55.929-44.421-66.989 9.695-8.105 15.876-20.277 15.876-33.868 0-24.359-19.818-44.178-44.178-44.178s-44.149 19.818-44.149 44.178c0 13.579 6.166 25.74 15.84 33.846a72.3 72.3 0 0 0-22.018 14.533c-6.34-6.077-13.76-11.034-21.96-14.512 9.688-8.105 15.864-20.276 15.864-33.866 0-24.359-19.806-44.178-44.149-44.178s-44.179 19.818-44.179 44.178c0 13.591 6.181 25.763 15.877 33.869-8.216 3.484-15.649 8.451-21.998 14.542a72.3 72.3 0 0 0-22.021-14.536c9.674-8.105 15.84-20.267 15.84-33.846 0-24.328-19.806-44.121-44.149-44.121s-44.15 19.793-44.15 44.121c0 13.591 6.177 25.763 15.866 33.868-26.058 11.057-44.382 36.908-44.382 66.961a8.01 8.01 0 0 0 8.008 8.008zm237.728-108.865c0-15.528 12.621-28.162 28.134-28.162s28.162 12.634 28.162 28.162-12.634 28.135-28.162 28.135-28.134-12.621-28.134-28.135m28.134 44.15c28.551 0 52.241 21.209 56.144 48.699H328.4a72.26 72.26 0 0 0-11.681-32.154c10.575-10.576 24.849-16.545 40.01-16.545m-128.736-44.15c0-15.528 12.634-28.162 28.163-28.162s28.134 12.634 28.134 28.162-12.621 28.135-28.134 28.135-28.163-12.621-28.163-28.135m28.163 44.15c28.536 0 52.215 21.209 56.115 48.699H200.012c3.902-27.49 27.593-48.699 56.144-48.699m-128.765-44.122c0-15.497 12.621-28.105 28.135-28.105s28.134 12.608 28.134 28.105-12.621 28.135-28.134 28.135-28.135-12.621-28.135-28.135m28.135 44.15c15.165 0 29.443 5.973 40.018 16.555a72.26 72.26 0 0 0-11.661 32.116H99.438c3.901-27.474 27.566-48.671 56.087-48.671zm265.918 77.188h-85.805a8.01 8.01 0 0 0-8.008 8.008c0 39.412-32.063 71.476-71.476 71.476s-71.476-32.063-71.476-71.476a8.01 8.01 0 0 0-8.008-8.008H90.867a8.01 8.01 0 0 0-8.008 8.008v13.634c0 10.285 7.472 18.372 19.503 21.104l25.18 5.707a134 134 0 0 0 9.065 21.879l-13.771 21.855c-6.57 10.454-6.142 21.458 1.122 28.722l19.284 19.255c7.255 7.295 18.267 7.728 28.735 1.132l21.857-13.747a135.3 135.3 0 0 0 21.851 9.068l5.729 25.151c2.727 12.05 10.813 19.535 21.105 19.535h27.27c10.275 0 18.352-7.486 21.073-19.524l5.731-25.157a134 134 0 0 0 21.889-9.068l21.829 13.729c10.438 6.608 21.451 6.186 28.739-1.104l19.275-19.275c7.26-7.259 7.688-18.263 1.113-28.725l-13.766-21.848a134 134 0 0 0 9.064-21.879l25.183-5.708c12.046-2.735 19.529-10.822 19.529-21.104v-13.634a8.01 8.01 0 0 0-8.008-8.008zm-8.008 21.642c0 3.603-5.404 5.109-7.058 5.485l-29.764 6.746a8 8 0 0 0-5.952 5.691 117.8 117.8 0 0 1-11.228 27.1 8 8 0 0 0 .185 8.229l16.266 25.815c.904 1.439 3.657 6.331 1.118 8.871l-19.275 19.275c-2.485 2.482-7.017.057-8.868-1.116l-25.823-16.242a8.01 8.01 0 0 0-8.225-.182 117.8 117.8 0 0 1-27.1 11.228 8 8 0 0 0-5.689 5.944l-6.777 29.748c-.374 1.654-1.873 7.053-5.455 7.053h-27.27c-3.608 0-5.11-5.399-5.487-7.066l-6.774-29.734a8.01 8.01 0 0 0-5.684-5.943c-9.344-2.569-18.459-6.351-27.092-11.237a8.01 8.01 0 0 0-8.209.19l-25.83 16.246c-1.438.905-6.326 3.663-8.866 1.107l-19.3-19.271c-2.539-2.54.214-7.432 1.113-8.863l16.271-25.823a8.01 8.01 0 0 0 .185-8.229 118 118 0 0 1-11.229-27.1 8 8 0 0 0-5.952-5.691l-29.761-6.745c-1.649-.375-7.031-1.878-7.031-5.486v-5.626h70.152c4.058 44.503 41.585 79.483 87.128 79.483s83.07-34.98 87.128-79.483h70.152zm-206.49-21.642a8.01 8.01 0 0 0-8.008 8.008c0 31.534 25.668 57.188 57.218 57.188s57.188-25.654 57.188-57.188a8.01 8.01 0 0 0-8.008-8.008zm49.21 49.181c-19.978 0-36.68-14.282-40.42-33.165h80.812c-3.737 18.883-20.429 33.165-40.392 33.165"/>
    </g>
</svg>
