<?xml version="1.0" encoding="UTF-8"?>
<svg data-bbox="41.358 7.999 429.286 496" xmlns="http://www.w3.org/2000/svg" viewBox="0 0 512 512" data-type="shape">
    <g>
        <path d="M306.436 115.269c0-27.81-22.625-50.436-50.436-50.436s-50.436 22.625-50.436 50.436 22.625 50.436 50.436 50.436 50.436-22.625 50.436-50.436m-84.872 0c0-18.988 15.448-34.436 34.436-34.436s34.436 15.448 34.436 34.436-15.448 34.436-34.436 34.436-34.436-15.448-34.436-34.436M105.7 372.87c22.996 0 41.704-18.708 41.704-41.704 0-20.26-14.523-37.183-33.704-40.926v-16.719c0-4.403 7.701-9.521 17.628-9.521h116.671v26.239c-19.181 3.743-33.705 20.667-33.705 40.926 0 22.996 18.708 41.704 41.705 41.704s41.705-18.708 41.705-41.704c0-20.26-14.524-37.184-33.705-40.926V264h116.67c9.928 0 17.629 5.118 17.629 9.521v16.719c-19.181 3.743-33.705 20.667-33.705 40.926 0 22.996 18.708 41.704 41.705 41.704s41.704-18.708 41.704-41.704c0-20.26-14.524-37.184-33.704-40.926v-16.719c0-14.311-14.771-25.521-33.629-25.521h-116.67v-25.462h.188c7.624 0 13.819-5.577 15.782-14.207l3.036-13.35a84 84 0 0 0 10.258-4.253l11.59 7.295c7.491 4.714 15.814 4.277 21.206-1.114l11.58-11.58c5.392-5.392 5.829-13.715 1.114-21.205l-7.299-11.596a84 84 0 0 0 4.251-10.252l13.355-3.037c8.63-1.963 14.207-8.158 14.207-15.782v-16.376c0-7.624-5.576-13.818-14.207-15.782l-13.351-3.037a84 84 0 0 0-4.253-10.258l7.295-11.591c4.715-7.49 4.278-15.814-1.114-21.205l-11.58-11.581c-5.391-5.391-13.714-5.828-21.205-1.114l-11.596 7.299a84 84 0 0 0-10.252-4.251l-3.037-13.355c-1.963-8.63-8.158-14.207-15.782-14.207h-16.376c-7.625 0-13.82 5.577-15.782 14.207l-3.038 13.355a84 84 0 0 0-10.252 4.251l-11.596-7.299c-7.491-4.715-15.814-4.277-21.206 1.114l-11.58 11.581c-5.392 5.391-5.829 13.715-1.114 21.205l7.297 11.595a84 84 0 0 0-4.252 10.254l-13.353 3.037c-8.63 1.963-14.207 8.158-14.207 15.782v16.376c0 7.624 5.577 13.819 14.207 15.782l13.35 3.036a84 84 0 0 0 4.253 10.258l-7.296 11.59c-4.715 7.491-4.278 15.814 1.114 21.206l11.581 11.581c5.392 5.391 13.716 5.828 21.205 1.113l11.596-7.299a84 84 0 0 0 10.252 4.252l3.038 13.354c1.962 8.631 8.157 14.208 15.782 14.208h.188V248H131.325c-18.857 0-33.628 11.21-33.628 25.521v16.719c-19.181 3.743-33.705 20.667-33.705 40.926 0 22.996 18.708 41.704 41.704 41.704zm176.004-41.704c0 14.173-11.531 25.704-25.705 25.704s-25.705-11.531-25.705-25.704 11.531-25.705 25.705-25.705 25.705 11.531 25.705 25.705m150.299 0c0 14.173-11.531 25.704-25.704 25.704s-25.705-11.531-25.705-25.704 11.531-25.705 25.705-25.705 25.704 11.531 25.704 25.705M247.631 204.783l-4.064-17.867a8 8 0 0 0-5.68-5.939 67.7 67.7 0 0 1-15.533-6.442 8 8 0 0 0-8.218.183l-15.516 9.765c-.759.478-1.355.691-1.708.774l-10.902-10.902c.083-.352.296-.949.774-1.708l9.763-15.509a8 8 0 0 0 .182-8.219 67.8 67.8 0 0 1-6.443-15.539 8 8 0 0 0-5.94-5.68l-17.862-4.062c-.875-.199-1.447-.47-1.755-.66v-15.417c.308-.19.881-.461 1.755-.66l17.865-4.063a8 8 0 0 0 5.94-5.68 67.7 67.7 0 0 1 6.442-15.535 8 8 0 0 0-.182-8.218l-9.764-15.514c-.478-.759-.691-1.355-.774-1.707l10.902-10.902c.352.083.949.296 1.708.774l15.515 9.765a8 8 0 0 0 8.218.183 67.7 67.7 0 0 1 15.533-6.441 8 8 0 0 0 5.68-5.939l4.064-17.869c.199-.874.47-1.446.66-1.754h15.417c.19.308.461.881.66 1.755l4.063 17.868a8 8 0 0 0 5.68 5.94 67.8 67.8 0 0 1 15.534 6.441 8 8 0 0 0 8.217-.183l15.515-9.765c.759-.478 1.355-.691 1.708-.774l10.902 10.902c-.083.352-.297.948-.774 1.707l-9.762 15.51a8 8 0 0 0-.182 8.219 67.7 67.7 0 0 1 6.442 15.539 8 8 0 0 0 5.939 5.68l17.863 4.063c.875.199 1.447.47 1.755.66v15.417c-.308.19-.881.461-1.755.66l-17.868 4.063a8 8 0 0 0-5.94 5.68 67.7 67.7 0 0 1-6.441 15.533 8 8 0 0 0 .183 8.218l9.765 15.515c.478.759.691 1.355.774 1.708l-10.902 10.902c-.352-.083-.949-.296-1.708-.774l-15.509-9.762a8 8 0 0 0-8.219-.182 67.8 67.8 0 0 1-15.54 6.442 8 8 0 0 0-5.68 5.94l-4.062 17.862c-.199.875-.47 1.447-.66 1.755h-15.417c-.19-.308-.461-.881-.66-1.755zM105.7 305.461c14.173 0 25.704 11.531 25.704 25.705S119.873 356.87 105.7 356.87s-25.704-11.531-25.704-25.704 11.531-25.705 25.704-25.705m40.581 69.792H65.12c-23.762 0-23.762 17.844-23.762 25.463v68.592c0 6.184 2.406 11.691 6.776 15.509 3.807 3.326 8.825 5.157 14.132 5.157 1.574 0 3.163-.178 4.725-.529v1.438c0 7.232 5.884 13.116 13.116 13.116h51.188c7.232 0 13.116-5.884 13.116-13.116v-1.438c1.562.352 3.15.529 4.725.529 10.136 0 20.908-7.243 20.908-20.667v-68.592c0-7.62 0-25.463-23.762-25.463zm7.762 94.055c0 4.212-3.432 4.667-4.908 4.667-2.155 0-4.725-.81-4.725-4.667v-59.416a8 8 0 0 0-16 0v78.107H82.99v-78.107a8 8 0 0 0-16 0v59.416c0 3.857-2.569 4.667-4.725 4.667-1.476 0-4.908-.455-4.908-4.667v-68.592c0-5.501.613-7.469 1.126-8.151.456-.605 2.467-1.312 6.635-1.312h81.162c4.168 0 6.179.707 6.635 1.312.514.683 1.127 2.651 1.127 8.151v68.592zm142.538-94.055h-81.162c-23.761 0-23.761 17.844-23.761 25.463v68.592c0 6.184 2.406 11.691 6.776 15.509 3.807 3.326 8.825 5.157 14.132 5.157 1.574 0 3.163-.178 4.725-.529v1.438c0 7.232 5.884 13.116 13.116 13.116h51.188c7.232 0 13.116-5.884 13.116-13.116v-1.438c1.562.352 3.15.529 4.725.529 10.136 0 20.908-7.243 20.908-20.667v-68.592c0-7.62 0-25.463-23.762-25.463zm7.762 94.055c0 4.212-3.432 4.667-4.908 4.667-2.155 0-4.725-.81-4.725-4.667v-59.416a8 8 0 0 0-16 0v78.107h-45.42v-78.107a8 8 0 0 0-16 0v59.416c0 3.857-2.569 4.667-4.725 4.667-1.476 0-4.908-.455-4.908-4.667v-68.592c0-5.501.613-7.469 1.126-8.151.456-.605 2.467-1.312 6.635-1.312h81.162c4.168 0 6.179.707 6.635 1.312.514.683 1.127 2.651 1.127 8.151v68.592zm142.538-94.055h-81.162c-23.762 0-23.762 17.844-23.762 25.463v68.592c0 6.184 2.406 11.691 6.776 15.509 3.807 3.326 8.825 5.157 14.132 5.157 1.574 0 3.163-.178 4.725-.529v1.438c0 7.232 5.884 13.116 13.116 13.116h51.189c7.232 0 13.116-5.884 13.116-13.116v-1.438c1.562.352 3.15.529 4.725.529 10.136 0 20.908-7.243 20.908-20.667v-68.592c0-7.62 0-25.463-23.762-25.463zm7.762 94.055c0 4.212-3.432 4.667-4.908 4.667-2.155 0-4.725-.81-4.725-4.667v-59.416a8 8 0 0 0-16 0v78.107h-45.42v-78.107a8 8 0 0 0-16 0v59.416c0 3.857-2.569 4.667-4.725 4.667-1.476 0-4.908-.455-4.908-4.667v-68.592c0-5.501.613-7.469 1.126-8.151.456-.605 2.467-1.312 6.635-1.312h81.162c4.168 0 6.179.707 6.635 1.312.514.683 1.127 2.651 1.127 8.151v68.592z"/>
    </g>
</svg>
